<svg width="83" height="83" viewBox="0 0 83 83" fill="none" xmlns="http://www.w3.org/2000/svg">
<path d="M44.9584 31.125H63.9792L44.9584 12.1041V31.125ZM20.75 6.91663H48.4167L69.1667 27.6666V69.1666C69.1667 71.001 68.438 72.7603 67.1409 74.0574C65.8437 75.3546 64.0845 76.0833 62.25 76.0833H20.75C18.9156 76.0833 17.1563 75.3546 15.8592 74.0574C14.5621 72.7603 13.8334 71.001 13.8334 69.1666V13.8333C13.8334 9.99454 16.9113 6.91663 20.75 6.91663ZM20.75 69.1666H62.25V41.5L48.4167 55.3333L41.5 48.4166L20.75 69.1666ZM27.6667 31.125C25.8323 31.125 24.073 31.8537 22.7759 33.1508C21.4788 34.4479 20.75 36.2072 20.75 38.0416C20.75 39.876 21.4788 41.6353 22.7759 42.9324C24.073 44.2296 25.8323 44.9583 27.6667 44.9583C29.5011 44.9583 31.2604 44.2296 32.5575 42.9324C33.8547 41.6353 34.5834 39.876 34.5834 38.0416C34.5834 36.2072 33.8547 34.4479 32.5575 33.1508C31.2604 31.8537 29.5011 31.125 27.6667 31.125Z" fill="#BDBDBD"/>
</svg>
