<svg width="38" height="40" viewBox="0 0 38 40" fill="none" xmlns="http://www.w3.org/2000/svg">
<path d="M19.0785 13.313C17.3281 13.313 15.6493 14.0332 14.4116 15.3151C13.1739 16.597 12.4785 18.3357 12.4785 20.1486C12.4785 21.9615 13.1739 23.7002 14.4116 24.9821C15.6493 26.2641 17.3281 26.9842 19.0785 26.9842C20.8289 26.9842 22.5076 26.2641 23.7453 24.9821C24.9831 23.7002 25.6784 21.9615 25.6784 20.1486C25.6784 18.3357 24.9831 16.597 23.7453 15.3151C22.5076 14.0332 20.8289 13.313 19.0785 13.313Z" fill="#BDBDBD"/>
<path fill-rule="evenodd" clip-rule="evenodd" d="M8.45762 1.39173C15.5166 0.581825 22.6403 0.581825 29.6993 1.39173C33.5557 1.83763 36.6648 4.98202 37.1177 8.99085C37.9542 16.4042 37.9542 23.8932 37.1177 31.3065C36.6648 35.3154 33.5557 38.4598 29.7013 38.9078C22.6417 39.7178 15.5173 39.7178 8.45762 38.9078C4.60122 38.4598 1.49213 35.3154 1.03927 31.3086C0.202566 23.8946 0.202566 16.4049 1.03927 8.99085C1.49213 4.98202 4.60122 1.83763 8.45762 1.39173ZM29.2322 7.52908C28.6937 7.52908 28.1771 7.75067 27.7963 8.14511C27.4154 8.53955 27.2015 9.07452 27.2015 9.63235C27.2015 10.1902 27.4154 10.7251 27.7963 11.1196C28.1771 11.514 28.6937 11.7356 29.2322 11.7356C29.7708 11.7356 30.2874 11.514 30.6682 11.1196C31.049 10.7251 31.263 10.1902 31.263 9.63235C31.263 9.07452 31.049 8.53955 30.6682 8.14511C30.2874 7.75067 29.7708 7.52908 29.2322 7.52908ZM9.43238 20.1487C9.43238 17.499 10.4487 14.9579 12.2577 13.0843C14.0666 11.2107 16.5202 10.1582 19.0785 10.1582C21.6368 10.1582 24.0903 11.2107 25.8993 13.0843C27.7083 14.9579 28.7246 17.499 28.7246 20.1487C28.7246 22.7984 27.7083 25.3395 25.8993 27.2131C24.0903 29.0867 21.6368 30.1392 19.0785 30.1392C16.5202 30.1392 14.0666 29.0867 12.2577 27.2131C10.4487 25.3395 9.43238 22.7984 9.43238 20.1487Z" fill="#BDBDBD"/>
</svg>
