<svg width="50" height="45" viewBox="0 0 50 45" fill="none" xmlns="http://www.w3.org/2000/svg">
<path d="M25 0C21.717 0 18.4661 0.596429 15.4329 1.75523C12.3998 2.91404 9.6438 4.61252 7.32233 6.75371C2.63392 11.078 0 16.9431 0 23.0586C0 33.2505 7.175 41.8975 17.1 44.9643C18.35 45.1488 18.75 44.4339 18.75 43.8114V39.9144C11.825 41.298 10.35 36.8246 10.35 36.8246C9.2 34.1498 7.575 33.435 7.575 33.435C5.3 32.0053 7.75 32.0515 7.75 32.0515C10.25 32.2129 11.575 34.4265 11.575 34.4265C13.75 37.9314 17.425 36.8938 18.85 36.3404C19.075 34.8416 19.725 33.827 20.425 33.2505C14.875 32.674 9.05 30.691 9.05 21.9057C9.05 19.3462 10 17.294 11.625 15.6568C11.375 15.0803 10.5 12.6822 11.875 9.56932C11.875 9.56932 13.975 8.94674 18.75 11.9213C20.725 11.414 22.875 11.1604 25 11.1604C27.125 11.1604 29.275 11.414 31.25 11.9213C36.025 8.94674 38.125 9.56932 38.125 9.56932C39.5 12.6822 38.625 15.0803 38.375 15.6568C40 17.294 40.95 19.3462 40.95 21.9057C40.95 30.7141 35.1 32.651 29.525 33.2275C30.425 33.9423 31.25 35.3488 31.25 37.4933V43.8114C31.25 44.4339 31.65 45.1718 32.925 44.9643C42.85 41.8744 50 33.2505 50 23.0586C50 20.0305 49.3534 17.0321 48.097 14.2345C46.8406 11.4369 44.9991 8.8949 42.6777 6.75371C40.3562 4.61252 37.6002 2.91404 34.5671 1.75523C31.5339 0.596429 28.283 0 25 0Z" fill="#BDBDBD"/>
</svg>
