<svg width="61" height="61" viewBox="0 0 61 61" fill="none" xmlns="http://www.w3.org/2000/svg">
<path d="M5.54546 0H55.4545C56.9253 0 58.3358 0.642676 59.3758 1.78665C60.4157 2.93062 61 4.48218 61 6.1V54.9C61 56.5178 60.4157 58.0694 59.3758 59.2133C58.3358 60.3573 56.9253 61 55.4545 61H5.54546C4.07471 61 2.6642 60.3573 1.62423 59.2133C0.584251 58.0694 0 56.5178 0 54.9V6.1C0 4.48218 0.584251 2.93062 1.62423 1.78665C2.6642 0.642676 4.07471 0 5.54546 0ZM33.2727 47.275L37.4318 51.85L49.9091 38.125L37.4318 24.4L33.2727 28.975L41.5909 38.125L33.2727 47.275ZM23.5682 51.85L27.7273 47.275L19.4091 38.125L27.7273 28.975L23.5682 24.4L11.0909 38.125L23.5682 51.85ZM5.54546 15.25H55.4545V6.1H5.54546V15.25Z" fill="#BDBDBD"/>
</svg>
